<svg xmlns="http://www.w3.org/2000/svg" width="191" height="49" viewBox="0 0 191 49">
  <g id="builtshops_logo" transform="translate(5 -126)">
    <rect id="Rectangle_9284" data-name="Rectangle 9284" width="191" height="49" transform="translate(-5 126)" fill="#fff"/>
    <path id="BuiltShops" d="M11.52.324A18.178,18.178,0,0,1,6.282-.414a11.531,11.531,0,0,1-4.014-2A2.023,2.023,0,0,1,1.44-4.14a2.03,2.03,0,0,1,.45-1.314,1.332,1.332,0,0,1,1.062-.558,2.925,2.925,0,0,1,1.476.5,10.8,10.8,0,0,0,3.24,1.62,13.082,13.082,0,0,0,3.744.5A7.373,7.373,0,0,0,15.444-4.3a3,3,0,0,0,1.4-2.682A2.306,2.306,0,0,0,15.534-9.09a17.4,17.4,0,0,0-4.374-1.422A25.91,25.91,0,0,1,6.012-12.1a7.269,7.269,0,0,1-2.988-2.3,5.96,5.96,0,0,1-1.008-3.564,6.706,6.706,0,0,1,1.26-4,8.3,8.3,0,0,1,3.51-2.754,12.432,12.432,0,0,1,5.058-.99,12.556,12.556,0,0,1,8.388,2.736,2.7,2.7,0,0,1,.666.774,2.045,2.045,0,0,1,.2.954,2.03,2.03,0,0,1-.45,1.314,1.333,1.333,0,0,1-1.062.558,1.988,1.988,0,0,1-.666-.108,5.337,5.337,0,0,1-.81-.4,12.164,12.164,0,0,0-2.862-1.6,9.7,9.7,0,0,0-3.4-.522,6.672,6.672,0,0,0-3.87.99,3.17,3.17,0,0,0-1.422,2.754,2.527,2.527,0,0,0,1.26,2.268A14.767,14.767,0,0,0,12.1-14.508a28.825,28.825,0,0,1,5.2,1.6,7.715,7.715,0,0,1,3.06,2.25,5.41,5.41,0,0,1,1.062,3.42,6.533,6.533,0,0,1-1.242,3.942A8.1,8.1,0,0,1,16.686-.63,13.135,13.135,0,0,1,11.52.324Zm23.724-18.36q6.192,0,6.192,7.236v8.856A2.1,2.1,0,0,1,40.842-.36,2.254,2.254,0,0,1,39.2.216,2.318,2.318,0,0,1,37.548-.36a2.07,2.07,0,0,1-.612-1.584V-10.8a4.166,4.166,0,0,0-.774-2.79,3.07,3.07,0,0,0-2.43-.882,4.107,4.107,0,0,0-3.114,1.224,4.543,4.543,0,0,0-1.17,3.276v8.028A2.07,2.07,0,0,1,28.836-.36,2.318,2.318,0,0,1,27.18.216,2.254,2.254,0,0,1,25.542-.36a2.1,2.1,0,0,1-.594-1.584V-23.472a1.952,1.952,0,0,1,.63-1.512,2.333,2.333,0,0,1,1.638-.576,2.359,2.359,0,0,1,1.62.54,1.867,1.867,0,0,1,.612,1.476v8.388A5.893,5.893,0,0,1,31.842-17.3,7.582,7.582,0,0,1,35.244-18.036ZM53.676.288A9.686,9.686,0,0,1,48.942-.828a7.722,7.722,0,0,1-3.15-3.2,10.158,10.158,0,0,1-1.116-4.86,10.052,10.052,0,0,1,1.116-4.842,7.748,7.748,0,0,1,3.15-3.186,9.686,9.686,0,0,1,4.734-1.116A9.686,9.686,0,0,1,58.41-16.92a7.636,7.636,0,0,1,3.132,3.186,10.187,10.187,0,0,1,1.1,4.842,10.3,10.3,0,0,1-1.1,4.86,7.61,7.61,0,0,1-3.132,3.2A9.686,9.686,0,0,1,53.676.288ZM53.64-3.2a4.034,4.034,0,0,0,3.348-1.44A6.69,6.69,0,0,0,58.14-8.892a6.7,6.7,0,0,0-1.152-4.23,3.972,3.972,0,0,0-3.312-1.458,4.023,4.023,0,0,0-3.33,1.458,6.628,6.628,0,0,0-1.17,4.23,6.69,6.69,0,0,0,1.152,4.248A3.993,3.993,0,0,0,53.64-3.2ZM76.1-18.036a7.3,7.3,0,0,1,4.05,1.152,7.639,7.639,0,0,1,2.772,3.258,11.259,11.259,0,0,1,.99,4.842A10.9,10.9,0,0,1,82.926-4,7.5,7.5,0,0,1,80.172-.828,7.445,7.445,0,0,1,76.1.288,6.968,6.968,0,0,1,72.756-.5a5.557,5.557,0,0,1-2.268-2.2V4.644a1.867,1.867,0,0,1-.612,1.476,2.359,2.359,0,0,1-1.62.54,2.333,2.333,0,0,1-1.638-.576,1.952,1.952,0,0,1-.63-1.512V-15.84a2.057,2.057,0,0,1,.594-1.548,2.2,2.2,0,0,1,1.6-.576,2.267,2.267,0,0,1,1.62.576,2.024,2.024,0,0,1,.612,1.548v.9A5.523,5.523,0,0,1,72.7-17.226,7.022,7.022,0,0,1,76.1-18.036ZM74.916-3.2a4.035,4.035,0,0,0,3.312-1.458,6.365,6.365,0,0,0,1.188-4.122,6.726,6.726,0,0,0-1.188-4.248,3.974,3.974,0,0,0-3.312-1.512,4,4,0,0,0-3.33,1.476,6.642,6.642,0,0,0-1.17,4.212,6.577,6.577,0,0,0,1.17,4.176A4,4,0,0,0,74.916-3.2ZM93.636.288A11.574,11.574,0,0,1,87.3-1.26,2.147,2.147,0,0,1,86.148-3.2a1.706,1.706,0,0,1,.4-1.17,1.246,1.246,0,0,1,.972-.45,3.977,3.977,0,0,1,1.692.576,15.759,15.759,0,0,0,2.106.828,8.577,8.577,0,0,0,2.43.288,4.621,4.621,0,0,0,2.358-.5,1.561,1.561,0,0,0,.846-1.4,1.353,1.353,0,0,0-.342-.972,3.136,3.136,0,0,0-1.224-.666,25.739,25.739,0,0,0-2.682-.7,10.3,10.3,0,0,1-4.59-1.836,4.086,4.086,0,0,1-1.386-3.276,4.727,4.727,0,0,1,.936-2.862,6.066,6.066,0,0,1,2.574-1.98,9.378,9.378,0,0,1,3.726-.7,11.168,11.168,0,0,1,2.916.378,8.864,8.864,0,0,1,2.52,1.1,2.173,2.173,0,0,1,1.152,1.908,1.847,1.847,0,0,1-.4,1.206,1.21,1.21,0,0,1-.972.486,1.947,1.947,0,0,1-.774-.162,10.386,10.386,0,0,1-.954-.486,15.1,15.1,0,0,0-1.8-.81,5.614,5.614,0,0,0-1.872-.27,3.625,3.625,0,0,0-2.106.54,1.706,1.706,0,0,0-.774,1.476,1.5,1.5,0,0,0,.792,1.368,11.341,11.341,0,0,0,3.06.936,17.459,17.459,0,0,1,3.78,1.152,4.427,4.427,0,0,1,1.962,1.62,4.7,4.7,0,0,1,.594,2.484,4.616,4.616,0,0,1-2.034,3.924A9.029,9.029,0,0,1,93.636.288Z" transform="translate(72 162)" fill="#4185f4"/>
    <path id="Subtraction_19" data-name="Subtraction 19" d="M17554.9-10590.7a6.2,6.2,0,0,1-4.857-1.817,8,8,0,0,1-1.621-5.452v-8.859a2.031,2.031,0,0,1,.613-1.546,2.279,2.279,0,0,1,1.621-.573,2.342,2.342,0,0,1,1.656.573,2.036,2.036,0,0,1,.607,1.546l0,8.895a4.248,4.248,0,0,0,.762,2.772,2.952,2.952,0,0,0,2.369.9,3.907,3.907,0,0,0,3.008-1.24,4.7,4.7,0,0,0,1.137-3.293l0-8.03a2.027,2.027,0,0,1,.609-1.545,2.262,2.262,0,0,1,1.621-.575,2.329,2.329,0,0,1,1.654.574,2.037,2.037,0,0,1,.615,1.546v13.969a1.943,1.943,0,0,1-.633,1.511,2.3,2.3,0,0,1-1.637.578,2.19,2.19,0,0,1-1.545-.539,1.93,1.93,0,0,1-.578-1.474v-.9a5.749,5.749,0,0,1-2.23,2.213,6.468,6.468,0,0,1-3.172.77Zm25.129-.071a2.315,2.315,0,0,1-1.6-.558,2.057,2.057,0,0,1-.631-1.6l0-21.49a1.984,1.984,0,0,1,.633-1.586,2.332,2.332,0,0,1,1.6-.539,2.414,2.414,0,0,1,1.621.54,1.94,1.94,0,0,1,.652,1.585l0,21.49a2.011,2.011,0,0,1-.65,1.6,2.407,2.407,0,0,1-1.551.525Zm-8.783,0a2.35,2.35,0,0,1-1.6-.557,2.049,2.049,0,0,1-.625-1.6l0-13.9a1.967,1.967,0,0,1,.627-1.58,2.386,2.386,0,0,1,1.6-.541,2.413,2.413,0,0,1,1.621.539,1.948,1.948,0,0,1,.65,1.583l0,13.9a2.025,2.025,0,0,1-.648,1.6,2.411,2.411,0,0,1-1.566.529Zm23.926-.025c-.123,0-.236,0-.348-.01l-.967-.07a6.642,6.642,0,0,1-4.541-1.839,6.6,6.6,0,0,1-1.51-4.645v-7.848h-1.8a2.29,2.29,0,0,1-1.5-.435,1.54,1.54,0,0,1-.52-1.258,1.552,1.552,0,0,1,.52-1.258,2.316,2.316,0,0,1,1.5-.435h1.8v-3.312a2.027,2.027,0,0,1,.609-1.545,2.333,2.333,0,0,1,1.656-.58,2.276,2.276,0,0,1,1.619.579,2,2,0,0,1,.617,1.546l0,3.312h3.061a2.316,2.316,0,0,1,1.494.434,1.536,1.536,0,0,1,.521,1.258,1.544,1.544,0,0,1-.521,1.259,2.245,2.245,0,0,1-1.494.433h-3.061v8.174c0,1.764.822,2.721,2.447,2.845l.973.07c1.193.071,1.8.617,1.8,1.621a1.471,1.471,0,0,1-.7,1.312,3.051,3.051,0,0,1-1.629.387Zm-58.953-.19h-9.287a2.276,2.276,0,0,1-1.639-.574,2.156,2.156,0,0,1-.592-1.621v-20.986a2.133,2.133,0,0,1,.594-1.621,2.261,2.261,0,0,1,1.637-.578h8.93a9.92,9.92,0,0,1,6.205,1.749,5.828,5.828,0,0,1,2.252,4.876,5.9,5.9,0,0,1-1.059,3.492,6.121,6.121,0,0,1-2.937,2.161,6.157,6.157,0,0,1,3.4,2.229,6.453,6.453,0,0,1,1.211,3.962,6.136,6.136,0,0,1-2.324,5.073,10.106,10.106,0,0,1-6.309,1.827Zm-6.986-11.09h0v7.49h6.482a6,6,0,0,0,3.67-.9,3.358,3.358,0,0,0,1.152-2.809,3.436,3.436,0,0,0-1.17-2.845,5.834,5.834,0,0,0-3.652-.937Zm0-10.692h0v7.093h5.869a6.021,6.021,0,0,0,3.592-.89,3.131,3.131,0,0,0,1.2-2.675,3.086,3.086,0,0,0-1.189-2.661,6.147,6.147,0,0,0-3.6-.868Z" transform="translate(-17527 10753)" fill="#303941"/>
    <path id="Path_13344" data-name="Path 13344" d="M156.466,2.585h-5.437a.263.263,0,0,0-.262.262V3.79a.263.263,0,0,0,.262.262h1.861V9.321a.263.263,0,0,0,.262.262h1.188a.263.263,0,0,0,.262-.262V4.052h1.861a.263.263,0,0,0,.262-.262V2.847a.255.255,0,0,0-.246-.262Zm8.3,6.715-.524-6.473a.262.262,0,0,0-.262-.24h-1.432a.262.262,0,0,0-.246.176l-.956,2.78c-.158.45-.353,1.154-.353,1.154h-.019s-.194-.7-.353-1.154l-.956-2.78a.265.265,0,0,0-.246-.176h-1.43a.266.266,0,0,0-.262.24L157.193,9.3a.262.262,0,0,0,.24.283h1.216a.265.265,0,0,0,.262-.244l.2-2.907a10.38,10.38,0,0,0,0-1.175h.02s.234.734.392,1.175l.669,1.853a.264.264,0,0,0,.246.173h1.093a.263.263,0,0,0,.246-.173l.671-1.853c.158-.44.392-1.175.392-1.175h.013a10.373,10.373,0,0,0,0,1.175l.2,2.907a.263.263,0,0,0,.262.244h1.178a.265.265,0,0,0,.271-.259.17.17,0,0,0,0-.024Z" transform="translate(21.234 129.415)" fill="#4386f3"/>
    <path id="searh" d="M47.746,11.266a1.3,1.3,0,0,1,.926.523c.687.7,1.364,1.4,2.083,2.067.409.377.1.556-.137.761s-.38.646-.808.192c-.745-.79-1.526-1.547-2.3-2.306a2.074,2.074,0,0,1-.348-.679c-2.549,1.16-4.274.86-5.522-.97a3.638,3.638,0,0,1,.537-4.645,3.622,3.622,0,0,1,4.707-.457C48.642,6.98,48.919,8.7,47.746,11.266Zm-.51-2.37a2.443,2.443,0,1,0-2.485,2.394A2.443,2.443,0,0,0,47.236,8.9Z" transform="translate(-1.994 125.953)" fill="#4386f3" stroke="#4185f4" stroke-width="0.4"/>
  </g>
</svg>
