<svg xmlns="http://www.w3.org/2000/svg" width="40.001" height="40.001" viewBox="0 0 40.001 40.001">
  <path id="cms" d="M35.028,30V25a1.183,1.183,0,0,0-.371-.9,1.236,1.236,0,0,0-.879-.351H30.107a13.1,13.1,0,0,0-.781-1.289l1.8-3.125a1.286,1.286,0,0,0,.117-.938,1.183,1.183,0,0,0-.586-.781l-6.406-3.75a1.319,1.319,0,0,0-1.718.468l-1.8,3.2q-.078,0-.313-.02t-.371-.02q-.137,0-.39.02t-.333.02l-1.8-3.2a1.319,1.319,0,0,0-1.718-.468L9.4,17.617a1.186,1.186,0,0,0-.586.781,1.287,1.287,0,0,0,.117.938l1.8,3.125a9.182,9.182,0,0,0-.742,1.289H6.279a1.233,1.233,0,0,0-.879.35,1.188,1.188,0,0,0-.371.9v5a4.82,4.82,0,0,1-3.536-1.465A4.808,4.808,0,0,1,.029,25V10A2.416,2.416,0,0,1,.752,8.222,2.416,2.416,0,0,1,2.529,7.5H21.28l1.8-3.32a2.446,2.446,0,0,1,1.09-1.192A3.308,3.308,0,0,1,25.888,2.5h9.375a3.376,3.376,0,0,1,1.757.488,2.446,2.446,0,0,1,1.093,1.191L40.028,7.5V25A5,5,0,0,1,35.028,30ZM1.825,1.68A2.446,2.446,0,0,1,2.919.489,3.309,3.309,0,0,1,4.637,0h9.375a3.376,3.376,0,0,1,1.757.488A2.682,2.682,0,0,1,16.9,1.68L18.777,5H.027ZM8.778,26.25H13a7.23,7.23,0,0,1,1.485-2.5l-1.8-3.242a1.09,1.09,0,0,1-.137-.918,1.287,1.287,0,0,1,.566-.762l2.031-1.211a1.179,1.179,0,0,1,1.6.468l1.875,3.281a9.594,9.594,0,0,1,1.406-.117,9.056,9.056,0,0,1,1.406.117l1.875-3.281a1.179,1.179,0,0,1,1.6-.468l2.07,1.211a1.339,1.339,0,0,1,.527.762,1.18,1.18,0,0,1-.1.918L25.573,23.75a7.253,7.253,0,0,1,1.485,2.5h4.218a1.233,1.233,0,0,1,.879.351,1.188,1.188,0,0,1,.371.9V30a1.269,1.269,0,0,1-1.25,1.25H27.057a7.316,7.316,0,0,1-1.485,2.461l1.836,3.242a1.248,1.248,0,0,1,.1.938,1.331,1.331,0,0,1-.527.742l-2.07,1.211a1.2,1.2,0,0,1-.9.117,1.049,1.049,0,0,1-.7-.586l-1.875-3.281a6.773,6.773,0,0,1-1.387.156,7.341,7.341,0,0,1-1.426-.156l-1.875,3.281a1.052,1.052,0,0,1-.7.586,1.2,1.2,0,0,1-.9-.117l-2.031-1.211a1.285,1.285,0,0,1-.566-.742,1.155,1.155,0,0,1,.137-.938l1.8-3.242A7.34,7.34,0,0,1,13,31.251H8.778A1.269,1.269,0,0,1,7.528,30V27.5a1.183,1.183,0,0,1,.371-.9,1.236,1.236,0,0,1,.879-.351Zm11.27,5a2.359,2.359,0,0,0,1.757-.742,2.5,2.5,0,0,0-3.534-3.534,2.353,2.353,0,0,0-.742,1.757,2.441,2.441,0,0,0,.742,1.777,2.408,2.408,0,0,0,1.777.743Z" transform="translate(-0.027)" fill="#fff"/>
</svg>
