<svg xmlns="http://www.w3.org/2000/svg" width="140" height="157.647" viewBox="0 0 140 157.647">
  <g id="contact-store" transform="translate(-80 -269)">
    <g id="Group_6058" data-name="Group 6058">
      <path id="Path_13033" data-name="Path 13033" d="M4071,1518h28l-14,17.647Zm-36,0a20,20,0,0,1-20-20V1398a20,20,0,0,1,20-20h100a20,20,0,0,1,20,20v100a20,20,0,0,1-20,20Z" transform="translate(-3935 -1109)" fill="#4185f4"/>
      <path id="store" d="M84.218,6H9.189v9.383H84.218Zm4.689,46.915V43.532L84.218,20.074H9.189L4.5,43.532v9.383H9.189V81.064H56.082V52.915H74.839V81.064h9.379V52.915ZM46.7,71.681H18.568V52.915H46.7Z" transform="translate(103.296 295.17)" fill="#fff"/>
    </g>
  </g>
</svg>
