<svg xmlns="http://www.w3.org/2000/svg" width="37.457" height="40" viewBox="0 0 37.457 40">
  <g id="interactivemap" transform="translate(-2.891 -1.865)">
    <path id="Path_12293" data-name="Path 12293" d="M40.348,3.106V3.085a1.22,1.22,0,0,0-1.219-1.22H16.96L2.891,15.94h0V40.646h0a1.221,1.221,0,0,0,1.22,1.219H39.132a1.219,1.219,0,0,0,1.189-.959h.027V3.106Zm-10.856,3.2H35.9V17.285L27.822,9.2l1.67-2.893ZM16.965,17.159h0A1.22,1.22,0,0,0,18.18,15.94V6.309h8.742L14.8,27.31,7.334,19.846V17.16h9.632ZM7.334,37.422V22.994L13.645,29.3,8.958,37.422H7.333Zm4.2,0L26.67,11.2l9.236,9.236v16.99Z" fill="#fff"/>
    <path id="Path_12294" data-name="Path 12294" d="M22.331,16.407a4.325,4.325,0,0,0-3.489,6.886l2.793,4.838a.736.736,0,0,0,.057.1l.006.01h0a.778.778,0,0,0,1.226.048h.007l.027-.046a.81.81,0,0,0,.1-.179L25.8,23.321a4.324,4.324,0,0,0-3.47-6.912Zm-.043,6.525A2.133,2.133,0,1,1,24.421,20.8a2.133,2.133,0,0,1-2.133,2.132Z" transform="translate(5.075 5.589)" fill="#fff"/>
  </g>
</svg>
