<svg xmlns="http://www.w3.org/2000/svg" width="42.838" height="40.087" viewBox="0 0 42.838 40.087">
  <g id="network" transform="translate(-2.25 -2.164)">
    <path id="Path_12295" data-name="Path 12295" d="M25.875,29.25A2.25,2.25,0,1,1,23.625,27,2.25,2.25,0,0,1,25.875,29.25Z" transform="translate(5.955 8.5)" fill="#fff"/>
    <path id="Path_12296" data-name="Path 12296" d="M25.875,6.75a2.25,2.25,0,1,1-2.25-2.25A2.25,2.25,0,0,1,25.875,6.75Z" transform="translate(5.955)" fill="#fff"/>
    <path id="Path_12297" data-name="Path 12297" d="M6.75,18A2.25,2.25,0,1,1,4.5,15.75,2.25,2.25,0,0,1,6.75,18Z" transform="translate(0 4.25)" fill="#fff"/>
    <path id="Path_12298" data-name="Path 12298" d="M39.306,16.536a5.779,5.779,0,0,0-5.6,4.286H27.5A5.685,5.685,0,0,0,24.415,17.1a5.831,5.831,0,0,0-4.879-.051l-4.607-5.671A5.606,5.606,0,0,0,16.1,7.964a5.8,5.8,0,1,0-5.8,5.714,5.817,5.817,0,0,0,2.369-.51l4.606,5.671a5.54,5.54,0,0,0,0,6.82L12.67,31.331a5.817,5.817,0,0,0-2.369-.509,5.715,5.715,0,1,0,5.8,5.714,5.6,5.6,0,0,0-1.174-3.41l4.606-5.671a5.831,5.831,0,0,0,4.88-.051A5.685,5.685,0,0,0,27.5,23.679h6.21a5.792,5.792,0,0,0,6.59,4.182,5.7,5.7,0,0,0-.989-11.326ZM7.4,7.964a2.9,2.9,0,1,1,2.9,2.857A2.9,2.9,0,0,1,7.4,7.964Zm2.9,31.429a2.857,2.857,0,1,1,2.9-2.857,2.857,2.857,0,0,1-2.9,2.857ZM21.9,25.107a2.857,2.857,0,1,1,2.9-2.857A2.857,2.857,0,0,1,21.9,25.107Zm17.4,0a2.857,2.857,0,1,1,2.9-2.857,2.857,2.857,0,0,1-2.9,2.857Z" fill="#fff"/>
  </g>
</svg>
