<svg xmlns="http://www.w3.org/2000/svg" width="38.621" height="40" viewBox="0 0 38.621 40">
  <g id="partnership" transform="translate(-2.25 -1.125)">
    <path id="Path_24825" data-name="Path 24825" d="M9,10.125a4.5,4.5,0,1,1,4.5-4.5A4.5,4.5,0,0,1,9,10.125Zm0-6.75a2.25,2.25,0,1,0,2.25,2.25A2.25,2.25,0,0,0,9,3.375Z" fill="#fff"/>
    <path id="Path_24826" data-name="Path 24826" d="M27,10.125a4.5,4.5,0,1,1,4.5-4.5A4.5,4.5,0,0,1,27,10.125Zm0-6.75a2.25,2.25,0,1,0,2.25,2.25A2.25,2.25,0,0,0,27,3.375Z" transform="translate(7.121)" fill="#fff"/>
    <path id="Path_24827" data-name="Path 24827" d="M35.353,41.125H29.836a2.88,2.88,0,0,1-2.759-2.987V27.681h2.759V38.138h5.517V24.694h2.759V15.731a1.44,1.44,0,0,0-1.379-1.494H27.877L21.56,26.188l-6.317-11.95H6.388a1.44,1.44,0,0,0-1.379,1.494v8.962H7.767V38.138h5.517V27.681h2.759V38.138a2.88,2.88,0,0,1-2.759,2.987H7.767a2.88,2.88,0,0,1-2.759-2.987V27.681A2.88,2.88,0,0,1,2.25,24.694V15.731A4.32,4.32,0,0,1,6.388,11.25H16.842l4.718,8.962,4.718-8.962H36.733a4.32,4.32,0,0,1,4.138,4.481v8.962a2.88,2.88,0,0,1-2.759,2.988V38.138A2.88,2.88,0,0,1,35.353,41.125Z" transform="translate(0)" fill="#fff"/>
  </g>
</svg>
