<svg xmlns="http://www.w3.org/2000/svg" width="40.006" height="40" viewBox="0 0 40.006 40">
  <path id="pointcloud" d="M42.216,21.94,39.359,9.083a1.429,1.429,0,0,0-.6-.879L30.186,2.49a1.429,1.429,0,0,0-.792-.24H15.107a1.428,1.428,0,0,0-.792.24L5.743,8.2a1.429,1.429,0,0,0-.6.879L2.284,21.94a1.431,1.431,0,0,0,.025.72L6.6,36.946a1.429,1.429,0,0,0,.957.959l14.286,4.286h.009a1.4,1.4,0,0,0,.805,0h.008L36.951,37.9a1.429,1.429,0,0,0,.959-.957L42.2,22.662a1.431,1.431,0,0,0,.025-.721ZM15,23.13,9.416,11.961l10.4,3.783Zm7.248-5.885,5.128,7.862H17.121ZM27.08,27.964l-4.83,9.664-4.832-9.664Zm-2.4-12.221,10.4-3.783L29.5,23.132Zm.7-3.293L29.8,5.67l5.021,3.347Zm-3.129-.434L17.745,5.107h9.011Zm-3.129.434L9.679,9.016,14.7,5.668ZM12.2,23.923,5.341,21.35l1.716-7.717ZM19.492,38.5,10.2,35.718l4.469-6.855Zm10.333-9.639,4.47,6.853L25.006,38.5Zm7.617-15.232,1.714,7.717L32.3,23.921ZM5.874,24.6l6.564,2.46-3.99,6.118Zm30.177,8.58-3.99-6.118,6.564-2.46Z" transform="translate(-2.25 -2.25)" fill="#fff"/>
</svg>
