<svg xmlns="http://www.w3.org/2000/svg" width="53.336" height="40" viewBox="0 0 53.336 40">
  <g id="scanner" transform="translate(0 -4.5)">
    <path id="Path_12290" data-name="Path 12290" d="M26.813,12.891c-6.446,0-15.563,5.226-15.563,11.672A15.563,15.563,0,0,1,26.813,9Z" transform="translate(4.488 1.609)" fill="#fff"/>
    <path id="Path_12291" data-name="Path 12291" d="M47.776,7.833H41.059a20.015,20.015,0,0,0-22.12,0H5.557A5.557,5.557,0,0,0,0,13.39V35.61a5.558,5.558,0,0,0,5.556,5.557H18.941a20.018,20.018,0,0,0,22.121,0h6.717a5.558,5.558,0,0,0,5.557-5.556V13.39a5.562,5.562,0,0,0-5.56-5.557ZM5,14.5a1.667,1.667,0,1,0-1.667-1.667A1.667,1.667,0,0,0,5,14.5ZM30,41.167A16.667,16.667,0,1,0,13.333,24.5,16.667,16.667,0,0,0,30,41.167Z" fill="#fff" fill-rule="evenodd"/>
    <path id="Path_12292" data-name="Path 12292" d="M4.5,8.391A3.891,3.891,0,0,1,8.391,4.5h3.891a3.891,3.891,0,1,1,0,7.781H8.391A3.891,3.891,0,0,1,4.5,8.391Z" transform="translate(3.281)" fill="#fff"/>
  </g>
</svg>
