<svg xmlns="http://www.w3.org/2000/svg" width="191" height="49" viewBox="0 0 191 49">
  <g id="builtshops_logo_dark" transform="translate(-7 -225)">
    <rect id="Rectangle_9282" data-name="Rectangle 9282" width="191" height="49" transform="translate(7 225)" fill="none"/>
    <path id="built" d="M18.36-13.1a6.14,6.14,0,0,1,3.4,2.232,6.445,6.445,0,0,1,1.206,3.96,6.112,6.112,0,0,1-2.322,5.076A10.046,10.046,0,0,1,14.256,0H4.968A2.254,2.254,0,0,1,3.33-.576,2.152,2.152,0,0,1,2.736-2.2V-23.184A2.152,2.152,0,0,1,3.33-24.8a2.254,2.254,0,0,1,1.638-.576H13.9a9.9,9.9,0,0,1,6.21,1.746,5.823,5.823,0,0,1,2.25,4.878,5.82,5.82,0,0,1-1.062,3.492A6.073,6.073,0,0,1,18.36-13.1ZM7.272-14.688H13.14q4.788,0,4.788-3.564a3.074,3.074,0,0,0-1.188-2.664,6.125,6.125,0,0,0-3.6-.864H7.272ZM13.752-3.6a5.984,5.984,0,0,0,3.672-.9,3.342,3.342,0,0,0,1.152-2.808,3.423,3.423,0,0,0-1.17-2.844,5.821,5.821,0,0,0-3.654-.936H7.272V-3.6Zm26.64-14.364a2.318,2.318,0,0,1,1.656.576,2.024,2.024,0,0,1,.612,1.548V-1.872A1.952,1.952,0,0,1,42.03-.36a2.333,2.333,0,0,1-1.638.576,2.172,2.172,0,0,1-1.548-.54A1.925,1.925,0,0,1,38.268-1.8v-.9A5.735,5.735,0,0,1,36.036-.486a6.451,6.451,0,0,1-3.168.774q-6.48,0-6.48-7.272V-15.84A2.024,2.024,0,0,1,27-17.388a2.267,2.267,0,0,1,1.62-.576,2.318,2.318,0,0,1,1.656.576,2.024,2.024,0,0,1,.612,1.548v8.892a4.248,4.248,0,0,0,.756,2.772,2.932,2.932,0,0,0,2.376.9,3.875,3.875,0,0,0,3.006-1.242A4.7,4.7,0,0,0,38.16-7.812V-15.84a2.024,2.024,0,0,1,.612-1.548A2.267,2.267,0,0,1,40.392-17.964ZM49.14.216a2.327,2.327,0,0,1-1.6-.558,2.027,2.027,0,0,1-.63-1.6v-13.9a1.971,1.971,0,0,1,.63-1.584,2.375,2.375,0,0,1,1.6-.54,2.445,2.445,0,0,1,1.62.54,1.944,1.944,0,0,1,.648,1.584v13.9a2,2,0,0,1-.648,1.6A2.4,2.4,0,0,1,49.14.216Zm8.712,0a2.327,2.327,0,0,1-1.6-.558,2.027,2.027,0,0,1-.63-1.6V-23.436a1.971,1.971,0,0,1,.63-1.584,2.375,2.375,0,0,1,1.6-.54,2.445,2.445,0,0,1,1.62.54,1.944,1.944,0,0,1,.648,1.584V-1.944a2,2,0,0,1-.648,1.6A2.4,2.4,0,0,1,57.852.216ZM73.476-3.132q1.8.108,1.8,1.62a1.464,1.464,0,0,1-.7,1.314,3.349,3.349,0,0,1-2,.378L71.6.108q-6.048-.432-6.048-6.48V-14.22h-1.8a2.286,2.286,0,0,1-1.494-.432,1.542,1.542,0,0,1-.522-1.26,1.542,1.542,0,0,1,.522-1.26,2.286,2.286,0,0,1,1.494-.432h1.8v-3.312a2.024,2.024,0,0,1,.612-1.548,2.318,2.318,0,0,1,1.656-.576,2.267,2.267,0,0,1,1.62.576,2.024,2.024,0,0,1,.612,1.548V-17.6h3.06a2.286,2.286,0,0,1,1.494.432,1.542,1.542,0,0,1,.522,1.26,1.542,1.542,0,0,1-.522,1.26,2.286,2.286,0,0,1-1.494.432h-3.06v8.172q0,2.664,2.448,2.844Z" transform="translate(7 263)" fill="#939598"/>
    <path id="TM" d="M156.466,2.585h-5.437a.263.263,0,0,0-.262.262v.943a.263.263,0,0,0,.262.262h1.861V9.321a.263.263,0,0,0,.262.262h1.188a.263.263,0,0,0,.262-.262V4.052h1.861a.263.263,0,0,0,.262-.262V2.847a.255.255,0,0,0-.246-.262Zm8.3,6.715-.524-6.473a.262.262,0,0,0-.262-.24h-1.432a.262.262,0,0,0-.246.176l-.956,2.78c-.158.45-.353,1.154-.353,1.154h-.019s-.194-.7-.353-1.154l-.956-2.78a.265.265,0,0,0-.246-.176h-1.43a.266.266,0,0,0-.262.24L157.193,9.3a.262.262,0,0,0,.24.283h1.216a.265.265,0,0,0,.262-.244l.2-2.907a10.381,10.381,0,0,0,0-1.175h.02s.234.734.392,1.175l.669,1.853a.264.264,0,0,0,.246.173h1.093a.263.263,0,0,0,.246-.173l.671-1.853c.158-.44.392-1.175.392-1.175h.013a10.37,10.37,0,0,0,0,1.175l.2,2.907a.263.263,0,0,0,.262.244h1.178a.265.265,0,0,0,.271-.259.165.165,0,0,0,0-.024Z" transform="translate(33.234 230.415)" fill="#4386f3"/>
    <path id="shops" d="M88.956.324a18.178,18.178,0,0,1-5.238-.738,11.531,11.531,0,0,1-4.014-2,2.023,2.023,0,0,1-.828-1.728,2.03,2.03,0,0,1,.45-1.314,1.332,1.332,0,0,1,1.062-.558,2.925,2.925,0,0,1,1.476.5,10.8,10.8,0,0,0,3.24,1.62,13.082,13.082,0,0,0,3.744.5A7.373,7.373,0,0,0,92.88-4.3a3,3,0,0,0,1.4-2.682A2.306,2.306,0,0,0,92.97-9.09,17.4,17.4,0,0,0,88.6-10.512,25.91,25.91,0,0,1,83.448-12.1a7.269,7.269,0,0,1-2.988-2.3,5.96,5.96,0,0,1-1.008-3.564,6.706,6.706,0,0,1,1.26-4,8.3,8.3,0,0,1,3.51-2.754,12.432,12.432,0,0,1,5.058-.99,12.556,12.556,0,0,1,8.388,2.736,2.7,2.7,0,0,1,.666.774,2.045,2.045,0,0,1,.2.954,2.03,2.03,0,0,1-.45,1.314,1.333,1.333,0,0,1-1.062.558,1.988,1.988,0,0,1-.666-.108,5.337,5.337,0,0,1-.81-.4,12.164,12.164,0,0,0-2.862-1.6A9.7,9.7,0,0,0,89.28-22a6.672,6.672,0,0,0-3.87.99,3.17,3.17,0,0,0-1.422,2.754,2.527,2.527,0,0,0,1.26,2.268,14.767,14.767,0,0,0,4.284,1.476,28.825,28.825,0,0,1,5.2,1.6,7.715,7.715,0,0,1,3.06,2.25,5.41,5.41,0,0,1,1.062,3.42,6.533,6.533,0,0,1-1.242,3.942A8.1,8.1,0,0,1,94.122-.63,13.135,13.135,0,0,1,88.956.324Zm23.652-18.36q6.192,0,6.192,7.236v8.856a2.1,2.1,0,0,1-.594,1.584,2.254,2.254,0,0,1-1.638.576,2.318,2.318,0,0,1-1.656-.576,2.07,2.07,0,0,1-.612-1.584V-10.8a4.166,4.166,0,0,0-.774-2.79,3.07,3.07,0,0,0-2.43-.882,4.107,4.107,0,0,0-3.114,1.224,4.543,4.543,0,0,0-1.17,3.276v8.028A2.07,2.07,0,0,1,106.2-.36a2.318,2.318,0,0,1-1.656.576,2.254,2.254,0,0,1-1.638-.576,2.1,2.1,0,0,1-.594-1.584V-23.472a1.952,1.952,0,0,1,.63-1.512,2.333,2.333,0,0,1,1.638-.576,2.359,2.359,0,0,1,1.62.54,1.867,1.867,0,0,1,.612,1.476v8.388a5.893,5.893,0,0,1,2.394-2.142A7.582,7.582,0,0,1,112.608-18.036ZM130.968.288a9.686,9.686,0,0,1-4.734-1.116,7.722,7.722,0,0,1-3.15-3.2,10.158,10.158,0,0,1-1.116-4.86,10.052,10.052,0,0,1,1.116-4.842,7.748,7.748,0,0,1,3.15-3.186,9.686,9.686,0,0,1,4.734-1.116A9.686,9.686,0,0,1,135.7-16.92a7.636,7.636,0,0,1,3.132,3.186,10.187,10.187,0,0,1,1.1,4.842,10.294,10.294,0,0,1-1.1,4.86,7.61,7.61,0,0,1-3.132,3.2A9.686,9.686,0,0,1,130.968.288ZM130.932-3.2a4.034,4.034,0,0,0,3.348-1.44,6.69,6.69,0,0,0,1.152-4.248,6.7,6.7,0,0,0-1.152-4.23,3.972,3.972,0,0,0-3.312-1.458,4.023,4.023,0,0,0-3.33,1.458,6.628,6.628,0,0,0-1.17,4.23,6.69,6.69,0,0,0,1.152,4.248A3.993,3.993,0,0,0,130.932-3.2Zm22.392-14.832a7.3,7.3,0,0,1,4.05,1.152,7.639,7.639,0,0,1,2.772,3.258,11.259,11.259,0,0,1,.99,4.842A10.9,10.9,0,0,1,160.146-4a7.5,7.5,0,0,1-2.754,3.168A7.445,7.445,0,0,1,153.324.288,6.968,6.968,0,0,1,149.976-.5a5.557,5.557,0,0,1-2.268-2.2V4.644A1.867,1.867,0,0,1,147.1,6.12a2.359,2.359,0,0,1-1.62.54,2.333,2.333,0,0,1-1.638-.576,1.952,1.952,0,0,1-.63-1.512V-15.84a2.057,2.057,0,0,1,.594-1.548,2.2,2.2,0,0,1,1.6-.576,2.267,2.267,0,0,1,1.62.576,2.024,2.024,0,0,1,.612,1.548v.9a5.523,5.523,0,0,1,2.286-2.286A7.022,7.022,0,0,1,153.324-18.036ZM152.136-3.2a4.035,4.035,0,0,0,3.312-1.458,6.365,6.365,0,0,0,1.188-4.122,6.726,6.726,0,0,0-1.188-4.248,3.974,3.974,0,0,0-3.312-1.512,4,4,0,0,0-3.33,1.476,6.642,6.642,0,0,0-1.17,4.212,6.577,6.577,0,0,0,1.17,4.176A4,4,0,0,0,152.136-3.2ZM170.784.288a11.574,11.574,0,0,1-6.336-1.548A2.147,2.147,0,0,1,163.3-3.2a1.706,1.706,0,0,1,.4-1.17,1.246,1.246,0,0,1,.972-.45,3.977,3.977,0,0,1,1.692.576,15.759,15.759,0,0,0,2.106.828,8.577,8.577,0,0,0,2.43.288,4.621,4.621,0,0,0,2.358-.5,1.561,1.561,0,0,0,.846-1.4,1.353,1.353,0,0,0-.342-.972,3.136,3.136,0,0,0-1.224-.666,25.739,25.739,0,0,0-2.682-.7,10.3,10.3,0,0,1-4.59-1.836,4.086,4.086,0,0,1-1.386-3.276,4.727,4.727,0,0,1,.936-2.862,6.066,6.066,0,0,1,2.574-1.98,9.378,9.378,0,0,1,3.726-.7,11.168,11.168,0,0,1,2.916.378,8.864,8.864,0,0,1,2.52,1.1,2.173,2.173,0,0,1,1.152,1.908,1.847,1.847,0,0,1-.4,1.206,1.21,1.21,0,0,1-.972.486,1.947,1.947,0,0,1-.774-.162,10.386,10.386,0,0,1-.954-.486,15.1,15.1,0,0,0-1.8-.81,5.614,5.614,0,0,0-1.872-.27,3.625,3.625,0,0,0-2.106.54,1.706,1.706,0,0,0-.774,1.476,1.5,1.5,0,0,0,.792,1.368,11.341,11.341,0,0,0,3.06.936,17.459,17.459,0,0,1,3.78,1.152,4.427,4.427,0,0,1,1.962,1.62,4.7,4.7,0,0,1,.594,2.484A4.616,4.616,0,0,1,176.2-1.188,9.029,9.029,0,0,1,170.784.288Z" transform="translate(7 263)" fill="#4185f4"/>
    <path id="searh" d="M46.448,10.071a1.051,1.051,0,0,1,.747.422c.554.562,1.1,1.132,1.68,1.667.33.3.077.449-.11.614s-.307.521-.652.155c-.6-.637-1.231-1.248-1.858-1.86a1.673,1.673,0,0,1-.281-.548c-2.056.936-3.447.693-4.454-.782a2.935,2.935,0,0,1,.433-3.747,2.922,2.922,0,0,1,3.8-.368C47.171,6.614,47.394,8,46.448,10.071Zm-.411-1.912a1.97,1.97,0,1,0-2,1.931A1.968,1.968,0,0,0,46.037,8.159Z" transform="translate(10.965 229.912)" fill="#4386f3"/>
  </g>
</svg>
